HIERARCHY
ROOT pelvis
{
  OFFSET 0 100 0
  CHANNELS 6 Xposition Yposition Zposition Zrotation Xrotation Yrotation
  JOINT pelvis_right_femur
  {
    OFFSET -10.78128 -3.44521 -0.5502486
    CHANNELS 3 Zrotation Xrotation Yrotation
    JOINT right_femur_tibia
    {
      OFFSET -0.8047443 -44.0398 -0.1307829
      CHANNELS 3 Zrotation Xrotation Yrotation
      JOINT right_tibia_foot
      {
        OFFSET 3.006224 -47.83518 -5
        CHANNELS 3 Zrotation Xrotation Yrotation
        End Site
        {
          OFFSET 0 -5 15
        }
      }
    }
  }
  JOINT pelvis_left_femur
  {
    OFFSET 10.78128 -3.44521 -0.5502486
    CHANNELS 3 Zrotation Xrotation Yrotation
    JOINT left_femur_tibia
    {
      OFFSET 0.8047443 -44.0398 -0.1307829
      CHANNELS 3 Zrotation Xrotation Yrotation
      JOINT left_tibia_foot
      {
        OFFSET -4.370144 -48.10324 -4.275266
        CHANNELS 3 Zrotation Xrotation Yrotation
        End Site
        {
          OFFSET 0 -5 15
        }
      }
    }
  }
  JOINT pelvis_spine1
  {
    OFFSET 0 6.468898 -3.129235
    CHANNELS 3 Zrotation Xrotation Yrotation
    JOINT spine1
    {
      OFFSET 0 23.15396 4.99043
      CHANNELS 3 Zrotation Xrotation Yrotation
      JOINT spine2
      {
        OFFSET 0 20.79997 -5.064912
        CHANNELS 3 Zrotation Xrotation Yrotation
        JOINT neck
        {
          OFFSET 0 14.38658 9.616178
          CHANNELS 3 Zrotation Xrotation Yrotation
          End Site
          {
            OFFSET 0 20 0
          }
        }
      }
      JOINT right_manubrium
      {
        OFFSET -5.722621 16.35077 3.967754
        CHANNELS 3 Zrotation Xrotation Yrotation
        JOINT right_clavicle
        {
          OFFSET -13.16364 1.694482 -4.693211
          CHANNELS 3 Zrotation Xrotation Yrotation
          JOINT right_humerus
          {
            OFFSET -28.5034 -0.3100689 -2.792744
            CHANNELS 3 Zrotation Xrotation Yrotation
            JOINT right_radius
            {
              OFFSET -25.15693 0.02248979 -1.271978
              CHANNELS 3 Zrotation Xrotation Yrotation
              End Site
              {
                OFFSET -15 0 0
              }
            }
          }
        }
      }
      JOINT left_manubrium
      {
        OFFSET 5.722621 16.35077 3.967754
        CHANNELS 3 Zrotation Xrotation Yrotation
        JOINT left_clavicle
        {
          OFFSET 13.16364 1.694482 -4.693211
          CHANNELS 3 Zrotation Xrotation Yrotation
          JOINT left_humerus
          {
            OFFSET 29.39168 -1.063119 -2.237045
            CHANNELS 3 Zrotation Xrotation Yrotation
            JOINT left_radius
            {
              OFFSET 24.59957 -0.9528479 0.9047498
              CHANNELS 3 Zrotation Xrotation Yrotation
              End Site
              {
                OFFSET 15 -0 -0
              }
            }
          }
        }
      }
    }
  }
}
MOTION
Frames: 15
Frame Time: 0.0416666666667
0 103.5113 0 1.96903 -2.467064 0.1692176 1.871937 -12.4488 6.5478 -0 35.88495 -0 -4.742347 -17.9973 -4.400642 -6.980337 14.20033 -24.81094 -0 5.078541 -0 -0.5747673 -20.44568 22.21706 -4.598791 -3.13898 3.090075 2.350101 7.420996 -7.677986 0.2826731 23.7226 8.016207 4.021857 -21.58272 8.105877 6.9269 -18.05549 11.2244 85.81291 36.44231 -21.24182 -0 0 15.28584 -8.35761 8.124458 5.276408 4.272999 -18.11827 -3.424844 -98.71733 40.24714 26.07028 0 0 -19.46155 -11.19968 15.90163 25.81186
0.1420108 103.5434 1.470082 1.48896 -2.045845 0.2391847 2.485436 -14.63404 6.83322 -0 36.35728 -0 -5.126534 -16.50908 -4.518181 -6.637676 14.19439 -24.43509 -0 5.234907 -0 -0.5393034 -20.81843 22.08895 -4.216262 -2.926781 3.06106 2.363831 7.490801 -7.784508 0.4350367 23.43791 7.933198 4.029614 -22.14943 8.208342 6.859873 -18.18135 11.20209 85.9581 36.33116 -21.27428 -0 0 15.2817 -8.242166 8.171743 5.236066 4.429095 -18.36219 -3.236811 -98.5012 39.79362 26.06565 0 0 -19.67786 -10.47413 16.04907 25.44368
0.2716287 103.5862 3.199011 0.7706538 -1.461138 0.3306607 3.416123 -18.23784 6.956187 -0 36.50982 -0 -5.827032 -13.49922 -4.579257 -6.119098 14.2083 -23.44247 -0 5.507849 -0 -0.6415549 -21.49144 21.56863 -3.664975 -2.47405 2.931203 2.4068 7.736118 -8.025958 0.57255 22.93506 7.8671 4.150591 -22.9436 8.187313 6.740449 -18.33701 11.23767 86.27187 36.081 -21.41042 -0 0 15.05358 -8.442966 8.225006 5.4503 4.701743 -18.94547 -3.131942 -97.72011 38.94882 25.58559 0 0 -20.38308 -9.357395 15.97051 24.79068
0.3861512 103.5569 5.172045 0.1090703 -0.795925 0.4231188 4.31646 -21.71147 7.014035 -0 35.1245 -0 -6.03659 -11.83173 -4.553297 -5.587159 14.40402 -22.85918 -0 5.922056 -0 -1.332614 -22.31202 20.81809 -3.094833 -2.006227 2.858912 2.421381 7.593405 -8.125617 0.7456421 22.55006 7.908841 4.311883 -23.48047 8.327429 6.646172 -18.24338 11.10991 86.31308 35.97538 -21.486 -0 0 15.06159 -8.427685 8.46445 5.324679 5.132534 -19.26603 -2.925519 -97.42558 38.58572 25.29684 0 0 -20.93991 -8.74304 16.06134 24.53491
0.4780606 103.417 7.389546 -0.5085044 -0.01312605 0.493369 5.214874 -25.08111 7.06277 -0 32.57175 -0 -5.961921 -11.02453 -4.491882 -5.045759 14.7408 -22.58514 -0 6.618867 -0 -2.470174 -23.20974 19.88156 -2.535477 -1.532876 2.808527 2.431791 7.165788 -8.145154 0.9394408 22.23579 8.04282 4.529571 -23.86428 8.578544 6.627945 -17.92731 10.87527 86.1536 36.14288 -21.5523 -0 0 15.1639 -8.260921 8.893681 4.979252 5.645733 -19.39665 -2.638419 -97.46801 38.61098 25.12948 0 0 -21.37342 -8.543015 16.28128 24.61694
0.5368964 103.1791 9.850952 -1.075316 0.8964808 0.5370924 6.128715 -28.06545 7.239032 -0 29.39832 -0 -5.652646 -11.06074 -4.428858 -4.505148 15.14764 -22.73297 -0 7.845701 -0 -3.980819 -24.02704 18.87005 -1.999524 -1.09711 2.778974 2.426356 6.444792 -8.057318 1.178252 22.00676 8.249999 4.785848 -24.12461 8.977017 6.741063 -17.37278 10.53279 85.75481 36.72529 -21.53192 -0 0 15.35791 -7.861976 9.542896 4.384697 6.169712 -19.2439 -2.224238 -97.94062 39.01411 25.22341 0 0 -21.45795 -8.72217 16.69723 25.01897
0.5520734 102.9191 12.59528 -1.624596 1.916696 0.57971 7.127854 -30.47687 7.64866 -0 26.316 -0 -5.183766 -11.69224 -4.395347 -3.941211 15.52932 -23.31761 -0 10.03551 -0 -5.894727 -24.59216 17.79941 -1.454639 -0.6830827 2.738601 2.377703 5.42509 -7.822552 1.494943 21.86653 8.508062 5.070418 -24.27232 9.548933 7.022797 -16.53256 10.06938 85.07103 37.80318 -21.28033 -0 0 15.62168 -7.196517 10.43831 3.533237 6.632789 -18.70669 -1.651944 -98.88422 39.72143 25.66858 0 0 -20.92866 -9.205257 17.31837 25.70084
0.5177496 102.7621 15.74754 -2.195601 2.924312 0.6943662 8.192834 -32.23123 8.177276 -0 24.02113 -0 -4.840565 -12.00499 -4.391942 -3.355206 15.7171 -23.90489 -0 13.58758 -0 -8.072791 -24.66547 16.55476 -0.8751853 -0.2219816 2.603083 2.298538 4.320154 -7.48552 1.875861 21.77981 8.761535 5.325269 -24.40181 10.23369 7.35337 -15.45952 9.566741 84.31216 39.09286 -20.76819 -0 0 15.67727 -6.532757 11.49653 2.677621 6.896068 -17.91872 -1.023122 -99.80153 40.28557 26.09068 0 0 -19.80672 -9.524109 17.95924 26.21344
0.450099 102.6752 19.54666 -2.695286 3.783602 0.9863947 8.78612 -34.09206 7.742495 -0 20.6947 -0 -5.558477 -9.149403 -4.08934 -2.966362 15.47813 -22.53107 -0 17.34974 -0 -9.49244 -24.27527 14.55396 -0.4427037 0.3460444 2.283822 2.492609 4.205312 -7.585283 1.995411 21.43165 8.949659 5.420646 -25.1921 10.57236 7.058459 -14.83864 9.583811 84.84953 39.12879 -21.08988 -0 0 14.37637 -7.260282 12.18474 3.147048 6.750345 -18.23069 -0.9449457 -98.38195 39.16197 24.61465 0 0 -20.09141 -8.155787 17.62091 24.98783
0.4002843 101.5683 24.3346 -1.796899 3.57059 1.460073 5.236445 -34.72216 1.799271 -0 5.478856 -0 -8.546326 0.02206578 -2.39126 -3.88371 14.51878 -13.90074 -0 14.50648 -0 -7.585278 -24.22367 10.08681 -1.237657 0.2197949 2.316762 3.847114 7.473975 -9.402682 0.9529935 20.63579 8.567173 4.24483 -27.68083 9.293648 3.017643 -17.08318 11.29044 90.68861 31.06896 -25.61372 -0 0 8.812124 -13.07784 9.877394 7.88213 5.724213 -23.5314 -3.237711 -90.12555 32.35776 17.31318 0 0 -28.76596 -2.63945 13.18613 19.11591
0.0585937 99.19075 30.79303 0.3341332 -0.6598329 2.322296 1.453124 -26.99912 -1.832057 0 -0.006530547 0 -10.42573 0.5006693 -5.58605 -5.064314 20.16377 -5.822611 -0 8.006601 -0 -5.053012 -22.97839 9.416657 -2.350393 -2.214366 1.688427 4.018881 8.432851 -9.779823 1.403958 22.58257 5.317535 0.3267959 -25.09233 8.054538 -3.841914 -17.35852 10.76547 97.24463 16.95183 -27.59949 -0 0 0.9973969 -15.06485 4.280883 8.143349 4.571723 -27.02557 -4.608297 -81.97194 25.25959 6.316801 0 0 -35.65024 3.244064 10.5274 10.75759
-0.03485776 99.18447 37.64184 -2.845409 2.489619 2.963918 8.055472 -30.05143 4.458545 -0 16.6743 -0 -10.37252 -2.099897 -5.540699 -2.893977 20.97942 -11.5876 -0 17.49834 -0 -7.087537 -16.93546 10.52093 0.5139071 -1.636915 0.7577243 3.603077 6.798218 -9.098137 1.121155 20.83558 6.995283 2.42099 -25.5313 8.726141 1.725568 -15.0831 10.6807 92.2776 28.04597 -24.78612 -0 0 4.576601 -10.2911 7.580803 6.639222 5.16073 -22.63239 -2.29626 -86.1699 26.25383 11.76122 0 0 -27.13424 3.99783 11.75327 9.994516
-0.09727843 99.16916 44.29248 -2.958081 1.615594 3.182537 8.233809 -28.6342 4.479063 -0 18.30425 -0 -10.7819 -3.999893 -5.317078 -2.920442 19.96039 -12.28008 -0 23.91511 -0 -6.862044 -15.22216 11.28011 0.6452233 -1.239085 0.7259548 3.35047 6.766172 -8.714452 1.328519 21.44902 7.045865 2.502262 -24.73808 9.087715 2.042574 -14.2993 10.55031 92.10378 29.53495 -24.16061 -0 0 4.151171 -10.16904 8.332751 6.154046 4.977316 -22.03115 -2.213283 -86.24418 26.00576 11.17448 0 0 -25.51817 5.233468 12.7286 8.102663
-0.1115297 99.70635 50.62901 -2.993863 0.8657166 3.088466 8.375039 -26.21678 4.393024 -0 19.56632 -0 -10.80408 -6.131046 -4.854138 -2.916789 17.00234 -12.9979 -0 32.62142 -0 -7.221675 -12.82276 11.49949 0.8087625 -0.4790346 0.9733444 3.084657 6.817377 -8.237614 1.377586 21.90282 7.228031 2.874293 -24.03773 9.1575 3.032471 -13.58262 10.64123 90.98544 31.98752 -22.92566 -0 0 4.601325 -10.29787 9.580186 6.024707 4.713379 -21.00603 -2.226086 -86.98532 26.17566 11.72545 0 0 -22.94769 5.768798 13.52006 7.271707
-0.09382009 100.6725 56.62038 -2.651632 -0.03952623 2.732868 7.994334 -22.40475 3.934657 -0 19.48384 -0 -10.61219 -8.104416 -4.21353 -3.164384 12.52796 -13.09857 -0 41.74734 -0 -7.395859 -10.47161 11.74719 0.6927347 0.2397333 1.63573 2.775338 7.096891 -7.688596 1.363815 22.37402 7.313479 3.163438 -23.38567 9.05056 3.759736 -13.27667 10.84229 89.93193 33.94787 -21.62545 -0 0 5.215566 -10.8466 10.67116 6.171189 4.416928 -20.22704 -2.307366 -87.74586 26.15128 12.65085 0 0 -20.87972 6.121315 13.87434 6.740741
